<svg width="97" height="34" viewBox="0 0 97 34" fill="none" xmlns="http://www.w3.org/2000/svg">
<path d="M22.8882 30.9648H20.4904L22.4232 19.8392H24.8211L22.8882 30.9648Z" fill="#2AB2BB"/>
<path d="M2.4266 30.1407H0.0287781L1.96156 19.0151H4.35939L2.4266 30.1407Z" fill="#2AB2BB"/>
<path d="M6.03411 8.95019C6.14068 8.40454 5.84519 7.98201 5.14764 7.68263L3.956 7.19009C2.2848 6.44163 1.49037 5.42273 1.57272 4.13343C1.60663 3.54433 1.81008 3.02039 2.18307 2.56165C2.55607 2.09808 3.07197 1.73833 3.73076 1.4824C4.38956 1.22649 5.10891 1.10334 5.8888 1.11301C6.93512 1.13231 7.77556 1.43654 8.41013 2.02566C9.04956 2.61476 9.36442 3.40429 9.35473 4.3942H6.88425C6.89878 3.98857 6.81158 3.66504 6.62268 3.42359C6.43859 3.17733 6.13342 3.04936 5.70714 3.0397C5.29056 3.03005 4.9224 3.12662 4.60268 3.32944C4.28299 3.53225 4.09406 3.80508 4.03592 4.14791C3.94389 4.63081 4.30236 5.02678 5.11132 5.33582C5.92513 5.64487 6.51609 5.91044 6.88425 6.13258C8.04199 6.82309 8.58453 7.75507 8.51186 8.92847C8.47311 9.5369 8.27693 10.0705 7.9233 10.5292C7.56969 10.988 7.07801 11.3429 6.44828 11.594C5.8234 11.8451 5.121 11.9658 4.34111 11.9561C3.76951 11.9465 3.23909 11.8572 2.74983 11.6881C2.26058 11.5191 1.84157 11.2729 1.49279 10.9493C0.785558 10.2974 0.446473 9.44031 0.475537 8.37798L2.96782 8.38521C2.93876 8.92604 3.04291 9.3365 3.28026 9.61657C3.51761 9.89183 3.91725 10.0294 4.47917 10.0294C4.89576 10.0294 5.24211 9.93528 5.51822 9.74695C5.79918 9.5538 5.97114 9.28822 6.03411 8.95019ZM12.6826 4.82155C13.2687 4.14068 13.9445 3.80508 14.7099 3.81474C15.4994 3.83405 16.0832 4.12136 16.461 4.67667C16.8437 5.232 16.9817 5.98529 16.8752 6.93657L16.0613 11.804H13.6708L14.4919 6.90761C14.5112 6.74342 14.5161 6.5889 14.5064 6.44404C14.4725 5.96599 14.2061 5.71972 13.7071 5.70521C13.276 5.69557 12.8933 5.8525 12.5591 6.17603L11.5564 11.804H9.16582L11.1059 0.678406H13.4964L12.6826 4.82155ZM21.8815 11.804C21.8137 11.6157 21.7798 11.3791 21.7798 11.0942C21.242 11.6833 20.6003 11.9682 19.8543 11.9489C19.1712 11.9392 18.6045 11.7123 18.154 11.268C17.7035 10.8238 17.4928 10.2854 17.5218 9.65279C17.5461 8.80292 17.9021 8.15102 18.59 7.69711C19.2778 7.23837 20.2176 7.00901 21.4092 7.00901L22.2085 7.0235L22.2957 6.58165L22.3248 6.19777C22.3054 5.75833 22.0849 5.53139 21.6634 5.5169C21.1403 5.50724 20.8183 5.79455 20.6972 6.37885L18.2993 6.38608C18.3235 5.85974 18.4955 5.40342 18.8152 5.01711C19.1349 4.62599 19.5685 4.32658 20.1158 4.11895C20.6681 3.90649 21.2542 3.80749 21.8743 3.82197C22.4701 3.83646 22.9907 3.96201 23.4366 4.19862C23.8869 4.4304 24.2236 4.75636 24.4464 5.17646C24.6692 5.59175 24.7541 6.07221 24.7008 6.61786L24.1122 10.3047L24.0758 10.7538C24.0566 11.1111 24.1025 11.4153 24.2139 11.6664L24.2066 11.804H21.8815ZM20.5155 10.225C21.0048 10.2443 21.4334 10.0294 21.8015 9.58035L22.0415 8.32003L21.4237 8.31279C21.0411 8.32246 20.7117 8.43592 20.4356 8.65322C20.1595 8.8657 19.9972 9.15783 19.9487 9.52965C19.9245 9.72764 19.9608 9.89183 20.0577 10.0222C20.1594 10.1477 20.312 10.2154 20.5155 10.225ZM27.7016 11.804H25.3039L27.2366 0.678406H29.6345L27.7016 11.804ZM31.7416 11.804H29.3439L31.2766 0.678406H33.6745L31.7416 11.804ZM45.6708 7.84197L47.8796 1.25787H50.3937L46.5573 11.804H43.985L43.5563 5.82836L41.2747 11.804H38.7026L38.1721 1.25787H40.5917L40.7372 7.813L43.164 1.25787H45.2784L45.6708 7.84197ZM53.242 11.9489C52.5397 11.9441 51.9124 11.7799 51.3601 11.4564C50.8129 11.128 50.3987 10.6741 50.1176 10.0946C49.8367 9.51034 49.7253 8.86811 49.7834 8.16793L49.8053 7.96512C49.9359 6.67582 50.384 5.65694 51.1493 4.90845C51.9196 4.15517 52.8619 3.79301 53.9759 3.82197C54.6493 3.83164 55.2257 4.00305 55.7052 4.33625C56.1849 4.66462 56.536 5.12093 56.7588 5.70521C56.9816 6.28467 57.0544 6.93657 56.9769 7.66089L56.8388 8.65322H52.1594C52.1691 9.06367 52.2855 9.39686 52.5083 9.65279C52.7311 9.90872 53.0555 10.0439 53.4819 10.0584C54.1745 10.0777 54.797 9.81214 55.3493 9.26166L56.3519 10.5872C56.0565 11.0073 55.6424 11.3381 55.1095 11.5795C54.5815 11.8161 54.0026 11.9392 53.3728 11.9489H53.242ZM53.8234 5.69798C53.4842 5.68832 53.1889 5.79455 52.9369 6.01669C52.6899 6.23881 52.4744 6.61063 52.2902 7.13214H54.6807L54.7243 6.92209C54.7534 6.75308 54.7582 6.59372 54.739 6.44404C54.6565 5.96114 54.3514 5.71247 53.8234 5.69798Z" fill="white" fill-opacity="0.73"/>
<mask id="path-4-inside-1_1_8" fill="white">
<path d="M31.1265 32.0465C29.8777 32.0379 28.7625 31.7461 27.7808 31.1709C26.8077 30.5872 26.0713 29.7802 25.572 28.75C25.0724 27.7112 24.8744 26.5696 24.9778 25.3248L25.0164 24.9642C25.2489 22.6721 26.0455 20.8607 27.4062 19.5302C28.7755 18.191 30.4504 17.5471 32.4311 17.5986C33.6282 17.6158 34.6529 17.9206 35.5054 18.5129C36.358 19.0967 36.9824 19.9078 37.3786 20.9466C37.7746 21.9768 37.9038 23.1357 37.7661 24.4234L37.5206 26.1874H29.2017C29.2188 26.9172 29.4255 27.5095 29.8217 27.9646C30.2179 28.4195 30.7948 28.6598 31.5527 28.6857C32.7841 28.7199 33.8909 28.2477 34.8726 27.2691L36.6552 29.6256C36.1298 30.3725 35.3934 30.9605 34.4462 31.3897C33.5075 31.8104 32.4784 32.0294 31.359 32.0465H31.1265ZM32.1599 20.9336C31.557 20.9165 31.0316 21.1055 30.584 21.5002C30.1448 21.8952 29.7614 22.5563 29.4342 23.4835H33.6842L33.7617 23.1099C33.8133 22.8096 33.8218 22.5263 33.7875 22.2601C33.641 21.4015 33.0984 20.9596 32.1599 20.9336ZM46.1625 31.789C46.0418 31.4542 45.9817 31.0335 45.9817 30.527C45.0258 31.5743 43.8847 32.0809 42.5584 32.0465C41.3442 32.0294 40.3366 31.6258 39.5357 30.8361C38.7348 30.0464 38.3603 29.0891 38.412 27.9646C38.455 26.4536 39.0878 25.2947 40.3108 24.4877C41.5337 23.6722 43.2043 23.2645 45.3228 23.2645L46.7437 23.2902L46.8987 22.5048L46.9504 21.8223C46.9159 21.041 46.5242 20.6376 45.775 20.6118C44.8449 20.5947 44.2722 21.1055 44.0568 22.1443L39.7941 22.1571C39.8371 21.2213 40.1429 20.4101 40.7113 19.7234C41.2797 19.0279 42.0504 18.4957 43.0234 18.1266C44.0052 17.7489 45.0473 17.5729 46.1495 17.5986C47.2087 17.6244 48.1345 17.8476 48.9269 18.2682C49.7278 18.6803 50.3261 19.2599 50.7223 20.0065C51.1185 20.7449 51.2692 21.5991 51.1745 22.5691L50.1281 29.1233L50.0636 29.9219C50.0291 30.5571 50.1109 31.0979 50.3089 31.5442L50.2961 31.789H46.1625ZM43.734 28.9818C44.6037 29.0162 45.3658 28.6342 46.0203 27.8357L46.4467 25.5953L45.3486 25.5823C44.6682 25.5994 44.0827 25.8013 43.5918 26.1874C43.101 26.5653 42.8124 27.0847 42.7264 27.7456C42.6833 28.0975 42.7479 28.3895 42.9201 28.6213C43.101 28.8444 43.3723 28.9647 43.734 28.9818ZM56.5094 31.789H52.2466L55.6826 12.0101H59.9454L56.5094 31.789ZM67.1792 14.3923L66.5722 17.8562H68.8069L68.2773 20.8694H66.0425L64.9574 27.2691C64.8971 27.7071 64.9229 28.0376 65.0349 28.2607C65.1554 28.4838 65.4483 28.6042 65.9133 28.6213C66.0942 28.6299 66.4645 28.6083 67.0242 28.5568L66.7142 31.6987C65.9995 31.9307 65.2373 32.0379 64.4279 32.0208C63.1103 32.0036 62.1242 31.6173 61.4697 30.8618C60.8151 30.1063 60.5483 29.0805 60.6688 27.7842L61.8055 20.8694H60.0746L60.5913 17.8562H62.3222L62.9295 14.3923H67.1792ZM74.2969 19.3756C75.3388 18.1652 76.5402 17.5686 77.9008 17.5858C79.3046 17.6201 80.3423 18.1309 81.014 19.1181C81.6942 20.1054 81.9398 21.4446 81.7502 23.1357L80.3035 31.789H76.0537L77.5133 23.0842C77.5478 22.7922 77.5563 22.5176 77.5391 22.2601C77.4788 21.4102 77.0053 20.9724 76.1182 20.9466C75.3518 20.9295 74.6714 21.2085 74.0772 21.7837L72.2946 31.789H68.0448L71.4937 12.0101H75.7437L74.2969 19.3756ZM87.0853 25.8784C87.1886 23.8354 87.8473 22.2815 89.0616 21.2171L90.1338 20.3671C90.7193 19.8951 91.1585 19.4185 91.4514 18.9378C91.7527 18.4571 91.8906 17.8948 91.8648 17.251C91.8389 16.4955 91.4384 16.1049 90.6633 16.0792C90.1638 16.062 89.7419 16.2423 89.3974 16.62C89.0616 16.9977 88.8247 17.53 88.687 18.2167L84.4371 18.2425C84.5662 16.5256 85.2251 15.1778 86.4136 14.1991C87.602 13.2119 89.1132 12.7355 90.9475 12.7698C92.0584 12.7956 93.0273 13.0145 93.8541 13.4265C94.6893 13.8386 95.3093 14.418 95.7142 15.1649C96.1189 15.9118 96.2867 16.7831 96.2179 17.7789C96.1145 19.2298 95.2965 20.5774 93.7635 21.8223L92.2523 23.0199C91.3652 23.7666 90.827 24.711 90.6375 25.8528L87.0853 25.8784ZM85.7418 29.8574C85.7245 29.1965 85.9485 28.6513 86.4136 28.2222C86.8786 27.7928 87.4383 27.5781 88.0928 27.5781C88.7559 27.5781 89.3071 27.78 89.7463 28.1834C90.1855 28.5868 90.4137 29.0891 90.4308 29.6899C90.448 30.3511 90.2241 30.8962 89.7591 31.3254C89.3027 31.7461 88.7429 31.9563 88.0798 31.9563C87.4426 31.9563 86.8957 31.7675 86.4394 31.3897C85.9915 31.0036 85.759 30.4926 85.7418 29.8574Z"/>
</mask>
<path d="M31.1265 32.0465C29.8777 32.0379 28.7625 31.7461 27.7808 31.1709C26.8077 30.5872 26.0713 29.7802 25.572 28.75C25.0724 27.7112 24.8744 26.5696 24.9778 25.3248L25.0164 24.9642C25.2489 22.6721 26.0455 20.8607 27.4062 19.5302C28.7755 18.191 30.4504 17.5471 32.4311 17.5986C33.6282 17.6158 34.6529 17.9206 35.5054 18.5129C36.358 19.0967 36.9824 19.9078 37.3786 20.9466C37.7746 21.9768 37.9038 23.1357 37.7661 24.4234L37.5206 26.1874H29.2017C29.2188 26.9172 29.4255 27.5095 29.8217 27.9646C30.2179 28.4195 30.7948 28.6598 31.5527 28.6857C32.7841 28.7199 33.8909 28.2477 34.8726 27.2691L36.6552 29.6256C36.1298 30.3725 35.3934 30.9605 34.4462 31.3897C33.5075 31.8104 32.4784 32.0294 31.359 32.0465H31.1265ZM32.1599 20.9336C31.557 20.9165 31.0316 21.1055 30.584 21.5002C30.1448 21.8952 29.7614 22.5563 29.4342 23.4835H33.6842L33.7617 23.1099C33.8133 22.8096 33.8218 22.5263 33.7875 22.2601C33.641 21.4015 33.0984 20.9596 32.1599 20.9336ZM46.1625 31.789C46.0418 31.4542 45.9817 31.0335 45.9817 30.527C45.0258 31.5743 43.8847 32.0809 42.5584 32.0465C41.3442 32.0294 40.3366 31.6258 39.5357 30.8361C38.7348 30.0464 38.3603 29.0891 38.412 27.9646C38.455 26.4536 39.0878 25.2947 40.3108 24.4877C41.5337 23.6722 43.2043 23.2645 45.3228 23.2645L46.7437 23.2902L46.8987 22.5048L46.9504 21.8223C46.9159 21.041 46.5242 20.6376 45.775 20.6118C44.8449 20.5947 44.2722 21.1055 44.0568 22.1443L39.7941 22.1571C39.8371 21.2213 40.1429 20.4101 40.7113 19.7234C41.2797 19.0279 42.0504 18.4957 43.0234 18.1266C44.0052 17.7489 45.0473 17.5729 46.1495 17.5986C47.2087 17.6244 48.1345 17.8476 48.9269 18.2682C49.7278 18.6803 50.3261 19.2599 50.7223 20.0065C51.1185 20.7449 51.2692 21.5991 51.1745 22.5691L50.1281 29.1233L50.0636 29.9219C50.0291 30.5571 50.1109 31.0979 50.3089 31.5442L50.2961 31.789H46.1625ZM43.734 28.9818C44.6037 29.0162 45.3658 28.6342 46.0203 27.8357L46.4467 25.5953L45.3486 25.5823C44.6682 25.5994 44.0827 25.8013 43.5918 26.1874C43.101 26.5653 42.8124 27.0847 42.7264 27.7456C42.6833 28.0975 42.7479 28.3895 42.9201 28.6213C43.101 28.8444 43.3723 28.9647 43.734 28.9818ZM56.5094 31.789H52.2466L55.6826 12.0101H59.9454L56.5094 31.789ZM67.1792 14.3923L66.5722 17.8562H68.8069L68.2773 20.8694H66.0425L64.9574 27.2691C64.8971 27.7071 64.9229 28.0376 65.0349 28.2607C65.1554 28.4838 65.4483 28.6042 65.9133 28.6213C66.0942 28.6299 66.4645 28.6083 67.0242 28.5568L66.7142 31.6987C65.9995 31.9307 65.2373 32.0379 64.4279 32.0208C63.1103 32.0036 62.1242 31.6173 61.4697 30.8618C60.8151 30.1063 60.5483 29.0805 60.6688 27.7842L61.8055 20.8694H60.0746L60.5913 17.8562H62.3222L62.9295 14.3923H67.1792ZM74.2969 19.3756C75.3388 18.1652 76.5402 17.5686 77.9008 17.5858C79.3046 17.6201 80.3423 18.1309 81.014 19.1181C81.6942 20.1054 81.9398 21.4446 81.7502 23.1357L80.3035 31.789H76.0537L77.5133 23.0842C77.5478 22.7922 77.5563 22.5176 77.5391 22.2601C77.4788 21.4102 77.0053 20.9724 76.1182 20.9466C75.3518 20.9295 74.6714 21.2085 74.0772 21.7837L72.2946 31.789H68.0448L71.4937 12.0101H75.7437L74.2969 19.3756ZM87.0853 25.8784C87.1886 23.8354 87.8473 22.2815 89.0616 21.2171L90.1338 20.3671C90.7193 19.8951 91.1585 19.4185 91.4514 18.9378C91.7527 18.4571 91.8906 17.8948 91.8648 17.251C91.8389 16.4955 91.4384 16.1049 90.6633 16.0792C90.1638 16.062 89.7419 16.2423 89.3974 16.62C89.0616 16.9977 88.8247 17.53 88.687 18.2167L84.4371 18.2425C84.5662 16.5256 85.2251 15.1778 86.4136 14.1991C87.602 13.2119 89.1132 12.7355 90.9475 12.7698C92.0584 12.7956 93.0273 13.0145 93.8541 13.4265C94.6893 13.8386 95.3093 14.418 95.7142 15.1649C96.1189 15.9118 96.2867 16.7831 96.2179 17.7789C96.1145 19.2298 95.2965 20.5774 93.7635 21.8223L92.2523 23.0199C91.3652 23.7666 90.827 24.711 90.6375 25.8528L87.0853 25.8784ZM85.7418 29.8574C85.7245 29.1965 85.9485 28.6513 86.4136 28.2222C86.8786 27.7928 87.4383 27.5781 88.0928 27.5781C88.7559 27.5781 89.3071 27.78 89.7463 28.1834C90.1855 28.5868 90.4137 29.0891 90.4308 29.6899C90.448 30.3511 90.2241 30.8962 89.7591 31.3254C89.3027 31.7461 88.7429 31.9563 88.0798 31.9563C87.4426 31.9563 86.8957 31.7675 86.4394 31.3897C85.9915 31.0036 85.759 30.4926 85.7418 29.8574Z" fill="white" stroke="white" stroke-width="2" mask="url(#path-4-inside-1_1_8)"/>
<path d="M6.17459 33.8492H1.9118L5.34787 14.0703H9.61066L6.17459 33.8492ZM19.893 33.8492H15.6302L19.0663 14.0703H23.3291L19.893 33.8492Z" fill="#39CFD9"/>
<path d="M7.88394 23.5298L17.1721 24.9961" stroke="#AEAAAA" stroke-width="3"/>
</svg>