<svg width="493" height="214" viewBox="0 0 493 214" fill="none" xmlns="http://www.w3.org/2000/svg">
<path d="M28.1953 53.1484C28.7109 50.5 27.2812 48.4492 23.9062 46.9961L18.1406 44.6055C10.0547 40.9727 6.21094 36.0273 6.60938 29.7695C6.77344 26.9102 7.75781 24.3672 9.5625 22.1406C11.3672 19.8906 13.8633 18.1445 17.0508 16.9023C20.2383 15.6602 23.7188 15.0625 27.4922 15.1094C32.5547 15.2031 36.6211 16.6797 39.6914 19.5391C42.7852 22.3984 44.3086 26.2305 44.2617 31.0352H32.3086C32.3789 29.0664 31.957 27.4961 31.043 26.3242C30.1523 25.1289 28.6758 24.5078 26.6133 24.4609C24.5977 24.4141 22.8164 24.8828 21.2695 25.8672C19.7227 26.8516 18.8086 28.1758 18.5273 29.8398C18.082 32.1836 19.8164 34.1055 23.7305 35.6055C27.668 37.1055 30.5273 38.3945 32.3086 39.4727C37.9102 42.8242 40.5352 47.3477 40.1836 53.043C39.9961 55.9961 39.0469 58.5859 37.3359 60.8125C35.625 63.0391 33.2461 64.7617 30.1992 65.9805C27.1758 67.1992 23.7773 67.7852 20.0039 67.7383C17.2383 67.6914 14.6719 67.2578 12.3047 66.4375C9.9375 65.6172 7.91016 64.4219 6.22266 62.8516C2.80078 59.6875 1.16016 55.5273 1.30078 50.3711L13.3594 50.4062C13.2188 53.0312 13.7227 55.0234 14.8711 56.3828C16.0195 57.7188 17.9531 58.3867 20.6719 58.3867C22.6875 58.3867 24.3633 57.9297 25.6992 57.0156C27.0586 56.0781 27.8906 54.7891 28.1953 53.1484ZM60.3633 33.1094C63.1992 29.8047 66.4688 28.1758 70.1719 28.2227C73.9922 28.3164 76.8164 29.7109 78.6445 32.4062C80.4961 35.1016 81.1641 38.7578 80.6484 43.375L76.7109 67H65.1445L69.1172 43.2344C69.2109 42.4375 69.2344 41.6875 69.1875 40.9844C69.0234 38.6641 67.7344 37.4688 65.3203 37.3984C63.2344 37.3516 61.3828 38.1133 59.7656 39.6836L54.9141 67H43.3477L52.7344 13H64.3008L60.3633 33.1094ZM104.871 67C104.543 66.0859 104.379 64.9375 104.379 63.5547C101.777 66.4141 98.6719 67.7969 95.0625 67.7031C91.7578 67.6562 89.0156 66.5547 86.8359 64.3984C84.6562 62.2422 83.6367 59.6289 83.7773 56.5586C83.8945 52.4336 85.6172 49.2695 88.9453 47.0664C92.2734 44.8398 96.8203 43.7266 102.586 43.7266L106.453 43.7969L106.875 41.6523L107.016 39.7891C106.922 37.6562 105.855 36.5547 103.816 36.4844C101.285 36.4375 99.7266 37.832 99.1406 40.668L87.5391 40.7031C87.6562 38.1484 88.4883 35.9336 90.0352 34.0586C91.582 32.1602 93.6797 30.707 96.3281 29.6992C99 28.668 101.836 28.1875 104.836 28.2578C107.719 28.3281 110.238 28.9375 112.395 30.0859C114.574 31.2109 116.203 32.793 117.281 34.832C118.359 36.8477 118.77 39.1797 118.512 41.8281L115.664 59.7227L115.488 61.9023C115.395 63.6367 115.617 65.1133 116.156 66.332L116.121 67H104.871ZM98.2617 59.3359C100.629 59.4297 102.703 58.3867 104.484 56.207L105.645 50.0898L102.656 50.0547C100.805 50.1016 99.2109 50.6523 97.875 51.707C96.5391 52.7383 95.7539 54.1562 95.5195 55.9609C95.4023 56.9219 95.5781 57.7188 96.0469 58.3516C96.5391 58.9609 97.2773 59.2891 98.2617 59.3359ZM133.031 67H121.43L130.781 13H142.383L133.031 67ZM152.578 67H140.977L150.328 13H161.93L152.578 67ZM219.973 47.7695L230.66 15.8125H242.824L224.262 67H211.816L209.742 37.9961L198.703 67H186.258L183.691 15.8125H195.398L196.102 47.6289L207.844 15.8125H218.074L219.973 47.7695ZM256.605 67.7031C253.207 67.6797 250.172 66.8828 247.5 65.3125C244.852 63.7188 242.848 61.5156 241.488 58.7031C240.129 55.8672 239.59 52.75 239.871 49.3516L239.977 48.3672C240.609 42.1094 242.777 37.1641 246.48 33.5312C250.207 29.875 254.766 28.1172 260.156 28.2578C263.414 28.3047 266.203 29.1367 268.523 30.7539C270.844 32.3477 272.543 34.5625 273.621 37.3984C274.699 40.2109 275.051 43.375 274.676 46.8906L274.008 51.707H251.367C251.414 53.6992 251.977 55.3164 253.055 56.5586C254.133 57.8008 255.703 58.457 257.766 58.5273C261.117 58.6211 264.129 57.332 266.801 54.6602L271.652 61.0938C270.223 63.1328 268.219 64.7383 265.641 65.9102C263.086 67.0586 260.285 67.6562 257.238 67.7031H256.605ZM259.418 37.3633C257.777 37.3164 256.348 37.832 255.129 38.9102C253.934 39.9883 252.891 41.793 252 44.3242H263.566L263.777 43.3047C263.918 42.4844 263.941 41.7109 263.848 40.9844C263.449 38.6406 261.973 37.4336 259.418 37.3633Z" fill="#676767" fill-opacity="0.73"/>
<path d="M149.602 167.25C143.56 167.208 138.164 165.792 133.414 163C128.706 160.167 125.143 156.25 122.727 151.25C120.31 146.208 119.352 140.667 119.852 134.625L120.039 132.875C121.164 121.75 125.018 112.958 131.602 106.5C138.227 100 146.331 96.875 155.914 97.125C161.706 97.2083 166.664 98.6875 170.789 101.562C174.914 104.396 177.935 108.333 179.852 113.375C181.768 118.375 182.393 124 181.727 130.25L180.539 138.812H140.289C140.372 142.354 141.372 145.229 143.289 147.438C145.206 149.646 147.997 150.812 151.664 150.938C157.622 151.104 162.977 148.812 167.727 144.062L176.352 155.5C173.81 159.125 170.247 161.979 165.664 164.062C161.122 166.104 156.143 167.167 150.727 167.25H149.602ZM154.602 113.312C151.685 113.229 149.143 114.146 146.977 116.062C144.852 117.979 142.997 121.188 141.414 125.688H161.977L162.352 123.875C162.602 122.417 162.643 121.042 162.477 119.75C161.768 115.583 159.143 113.438 154.602 113.312ZM222.352 166C221.768 164.375 221.477 162.333 221.477 159.875C216.852 164.958 211.331 167.417 204.914 167.25C199.039 167.167 194.164 165.208 190.289 161.375C186.414 157.542 184.602 152.896 184.852 147.438C185.06 140.104 188.122 134.479 194.039 130.562C199.956 126.604 208.039 124.625 218.289 124.625L225.164 124.75L225.914 120.938L226.164 117.625C225.997 113.833 224.102 111.875 220.477 111.75C215.977 111.667 213.206 114.146 212.164 119.188L191.539 119.25C191.747 114.708 193.227 110.771 195.977 107.438C198.727 104.062 202.456 101.479 207.164 99.6875C211.914 97.8542 216.956 97 222.289 97.125C227.414 97.25 231.893 98.3333 235.727 100.375C239.602 102.375 242.497 105.188 244.414 108.812C246.331 112.396 247.06 116.542 246.602 121.25L241.539 153.062L241.227 156.938C241.06 160.021 241.456 162.646 242.414 164.812L242.352 166H222.352ZM210.602 152.375C214.81 152.542 218.497 150.688 221.664 146.812L223.727 135.938L218.414 135.875C215.122 135.958 212.289 136.938 209.914 138.812C207.539 140.646 206.143 143.167 205.727 146.375C205.518 148.083 205.831 149.5 206.664 150.625C207.539 151.708 208.852 152.292 210.602 152.375ZM272.414 166H251.789L268.414 70H289.039L272.414 166ZM324.039 81.5625L321.102 98.375H331.914L329.352 113H318.539L313.289 144.062C312.997 146.188 313.122 147.792 313.664 148.875C314.247 149.958 315.664 150.542 317.914 150.625C318.789 150.667 320.581 150.562 323.289 150.312L321.789 165.562C318.331 166.688 314.643 167.208 310.727 167.125C304.352 167.042 299.581 165.167 296.414 161.5C293.247 157.833 291.956 152.854 292.539 146.562L298.039 113H289.664L292.164 98.375H300.539L303.477 81.5625H324.039ZM358.477 105.75C363.518 99.875 369.331 96.9792 375.914 97.0625C382.706 97.2292 387.727 99.7083 390.977 104.5C394.268 109.292 395.456 115.792 394.539 124L387.539 166H366.977L374.039 123.75C374.206 122.333 374.247 121 374.164 119.75C373.872 115.625 371.581 113.5 367.289 113.375C363.581 113.292 360.289 114.646 357.414 117.438L348.789 166H328.227L344.914 70H365.477L358.477 105.75ZM420.352 137.312C420.852 127.396 424.039 119.854 429.914 114.688L435.102 110.562C437.935 108.271 440.06 105.958 441.477 103.625C442.935 101.292 443.602 98.5625 443.477 95.4375C443.352 91.7708 441.414 89.875 437.664 89.75C435.247 89.6667 433.206 90.5417 431.539 92.375C429.914 94.2083 428.768 96.7917 428.102 100.125L407.539 100.25C408.164 91.9167 411.352 85.375 417.102 80.625C422.852 75.8333 430.164 73.5208 439.039 73.6875C444.414 73.8125 449.102 74.875 453.102 76.875C457.143 78.875 460.143 81.6875 462.102 85.3125C464.06 88.9375 464.872 93.1667 464.539 98C464.039 105.042 460.081 111.583 452.664 117.625L445.352 123.438C441.06 127.062 438.456 131.646 437.539 137.188L420.352 137.312ZM413.852 156.625C413.768 153.417 414.852 150.771 417.102 148.688C419.352 146.604 422.06 145.562 425.227 145.562C428.435 145.562 431.102 146.542 433.227 148.5C435.352 150.458 436.456 152.896 436.539 155.812C436.622 159.021 435.539 161.667 433.289 163.75C431.081 165.792 428.372 166.812 425.164 166.812C422.081 166.812 419.435 165.896 417.227 164.062C415.06 162.188 413.935 159.708 413.852 156.625Z" fill="#676767"/>
<path d="M110.742 158.548H99.1406L108.492 104.548H120.094L110.742 158.548Z" fill="#2AB2BB"/>
<path d="M11.7422 154H0.140625L9.49219 100H21.0938L11.7422 154Z" fill="#2AB2BB"/>
<path d="M28.875 176.218H8.25L24.875 80.2178H45.5L28.875 176.218ZM95.25 176.218H74.625L91.25 80.2178H111.875L95.25 176.218Z" fill="#39CFD9"/>
<line y1="-5.5" x2="47.031" y2="-5.5" transform="matrix(0.991298 0.131638 -0.121786 0.992556 36.1885 135.267)" stroke="#5A5A5A" stroke-width="11"/>
</svg>

